<svg width="74" height="61" viewBox="0 0 74 61" fill="none" xmlns="http://www.w3.org/2000/svg">
<path d="M65.9814 41.2317C66.4037 39.9323 66.7334 38.5406 67.0823 37.0947C67.2652 36.2529 67.7055 34.7147 68.2565 32.7381C73.263 14.801 75.7391 3.17797 72.6216 0.706645C68.3119 -2.73495 57.8225 7.02075 48.3223 16.4294L48.084 16.6671C38.3455 8.53983 22.721 6.65563 8.76535 12.2192C6.71151 13.025 4.40024 14.1226 2.76869 16.0079C0.731795 18.3519 -0.130838 21.629 0.0159454 26.3327C0.345643 35.7402 3.73859 44.4343 9.55233 50.8048C15.4575 57.2654 23.6921 61 31.8893 61C32.4765 61 33.0636 60.982 33.6677 60.9448C37.2074 60.707 40.6003 59.7919 43.8465 58.5287L44.122 58.5839C48.8168 59.6815 53.6765 60.8355 58.5914 59.6455C62.2407 58.7665 66.7526 56.1126 68.6043 52.1413C69.7594 49.7072 69.7232 47.1074 68.5128 44.618C67.8715 43.3187 66.9355 42.2571 65.9825 41.2317H65.9814ZM49.623 17.7298C54.1891 13.2086 68.0906 -0.5555 71.4654 2.13557C74.2713 4.36912 68.4022 25.3444 66.4771 32.2445C65.9272 34.2583 65.4868 35.8326 65.2847 36.6924C65.0465 37.7179 64.8083 38.7062 64.5328 39.6754C61.9652 36.7285 59.9294 33.2328 57.9862 29.8464C55.8037 26.0758 53.5477 22.1778 50.5037 18.9379C50.1548 18.5716 49.807 18.2245 49.4581 17.8944L49.623 17.7298ZM33.5401 59.1147C25.3428 59.6826 16.87 56.0945 10.9095 49.5787C5.38934 43.5204 2.16124 35.2466 1.8496 26.2595C1.70282 22.0493 2.43674 19.1757 4.14168 17.1991C5.51692 15.6248 7.58995 14.6545 9.44168 13.904C14.613 11.8541 20.0055 10.8658 25.2322 10.8658C33.4114 10.8658 41.1321 13.318 46.781 17.9676C46.4141 18.3158 46.1025 18.6077 45.8642 18.8274C40.0324 24.1352 33.6688 30.6882 29.9461 38.5225C28.2773 39.1638 26.7372 39.9503 25.3428 40.8834C23.4911 42.1287 21.8031 44.2146 22.5923 46.3569C22.9954 47.4917 23.7293 48.2974 24.7568 48.7358C25.3801 48.9916 26.0767 49.102 26.8106 49.102H26.884C26.7553 50.1996 26.7011 51.3356 26.7192 52.4884C26.7372 53.257 26.7926 54.154 27.2149 54.9597C28.4433 57.2846 31.4332 57.1741 33.7252 57.0828C35.9631 56.9916 38.2179 57.3206 40.4739 57.7601C38.2179 58.4735 35.9078 58.9682 33.5412 59.1147H33.5401ZM27.1211 47.2719C26.4979 47.308 25.9469 47.2539 25.4885 47.0522C24.9194 46.8144 24.5536 46.3929 24.3142 45.7348C23.8919 44.582 25.1576 43.2094 26.35 42.4036C27.1573 41.8729 27.9826 41.3973 28.8803 40.9758C28.0922 42.9896 27.487 45.0947 27.12 47.2719H27.1211ZM32.3477 45.79C31.3203 46.2295 30.1652 46.669 29.0463 46.9609C29.2845 45.6796 29.6153 44.4355 30.0365 43.2083C30.0365 43.3176 30.0545 43.428 30.0918 43.5373C30.4034 44.7454 31.3756 45.4226 32.3477 45.7889V45.79ZM43.6997 56.6073C40.6918 55.912 37.5924 55.2347 34.4016 55.2347C34.108 55.2347 33.8325 55.2347 33.5581 55.2527C31.6692 55.326 29.5239 55.4173 28.8453 54.1179C28.589 53.6604 28.5698 53.0192 28.5517 52.4704V52.1041C28.5517 51.0065 28.6251 49.9438 28.7538 48.8823C30.881 48.4608 33.0997 47.4725 34.6771 46.7592C35.0068 46.6127 35.3184 46.4662 35.5758 46.3569C37.9052 46.5946 40.6195 46.7783 43.2232 46.2104C46.1397 45.5703 48.8529 43.9768 50.8526 41.7624C51.1089 41.4694 51.696 40.8102 51.5865 39.9323C51.495 39.1085 50.8526 38.5045 49.7156 38.1202C44.5804 36.4727 39.0975 36.1977 33.8336 37.3697C33.338 37.479 32.8615 37.6075 32.385 37.736C36.0523 30.8539 41.8107 24.9962 47.0927 20.1831C47.3682 19.9453 47.7159 19.5971 48.1563 19.1768C48.5052 19.5058 48.8349 19.836 49.1646 20.2023C52.0618 23.2776 54.2625 27.0844 56.3897 30.7637C58.4808 34.3699 60.6441 38.1033 63.5233 41.288C63.6329 41.4165 63.7616 41.563 63.8903 41.6903C63.2851 43.3559 62.5151 44.875 61.4142 46.1743C59.7634 48.1149 57.4533 49.4322 55.2154 50.7135C51.6215 52.7634 47.7701 54.9597 43.6986 56.6073H43.6997ZM40.7844 40.4992C40.5642 39.7858 40.1058 39.3463 39.6846 38.962L39.5017 38.7795C39.3911 38.6882 39.2816 38.5969 39.172 38.5045C42.5469 38.376 45.9207 38.8155 49.1488 39.8771C49.6072 40.0236 49.7359 40.1521 49.772 40.1521C49.754 40.1893 49.6986 40.2986 49.4965 40.5363C47.7363 42.4769 45.3697 43.8495 42.8213 44.4163C41.5194 44.6913 40.1984 44.7826 38.8231 44.7454C38.9327 44.6541 39.0614 44.5628 39.172 44.4524C40.5845 43.2443 41.1897 41.7613 40.7855 40.4992H40.7844ZM66.9536 51.3716C65.3401 54.7761 61.3781 57.0828 58.1691 57.8694C54.3731 58.7845 50.6132 58.1805 46.7076 57.3015C50.0272 55.7824 53.1627 53.9883 56.1334 52.3047C58.3893 51.0054 60.9377 49.5404 62.8086 47.3632C63.8722 46.0999 64.6603 44.7093 65.2847 43.1902C65.908 43.9036 66.4579 44.618 66.8621 45.4238C67.8342 47.4184 67.8704 49.4142 66.9536 51.3728V51.3716Z" fill="#6CC5B1"/>
</svg>
