<svg width="100" height="83" viewBox="0 0 100 83" fill="none" xmlns="http://www.w3.org/2000/svg">
<g clip-path="url(#clip0_3_32)">
<path d="M89.1651 55.7293C89.7358 53.973 90.1813 52.0919 90.6528 50.1376C90.9 48.9998 91.4951 46.9206 92.2397 44.2489C99.0052 20.0043 102.351 4.29404 98.1385 0.953672C92.3144 -3.69816 78.1395 9.48813 65.3011 22.2053L64.9792 22.5267C51.8189 11.5414 30.7044 8.99461 11.8451 16.5146C9.06961 17.6037 5.94623 19.0873 3.74141 21.6356C0.988804 24.8038 -0.176932 29.2333 0.0214261 35.5911C0.466969 48.3067 5.05209 60.0582 12.9086 68.6688C20.8887 77.4013 32.0166 82.4491 43.0941 82.4491C43.8876 82.4491 44.681 82.4248 45.4973 82.3745C50.2808 82.0531 54.8659 80.8163 59.2527 79.1088L59.625 79.1834C65.9694 80.667 72.5366 82.2268 79.1786 80.6183C84.11 79.4302 90.2073 75.843 92.7096 70.4753C94.2706 67.1852 94.2217 63.6712 92.586 60.3065C91.7194 58.5502 90.4545 57.1154 89.1666 55.7293H89.1651ZM67.0589 23.963C73.2293 17.852 92.0154 -0.752306 96.5761 2.88508C100.368 5.90405 92.4365 34.2553 89.835 43.5818C89.0919 46.3037 88.4968 48.4316 88.2237 49.5938C87.9017 50.9799 87.5798 52.3158 87.2075 53.6257C83.7377 49.6426 80.9867 44.9176 78.3607 40.3404C75.4113 35.2438 72.3627 29.9751 68.249 25.5959C67.7775 25.1009 67.3076 24.6317 66.8361 24.1854L67.0589 23.963ZM45.3249 79.9008C34.2474 80.6685 22.7975 75.8187 14.7427 67.0116C7.28286 58.8229 2.92051 47.6396 2.49938 35.4921C2.30102 29.8014 3.29281 25.9173 5.59682 23.2456C7.45528 21.1177 10.2567 19.8062 12.7591 18.7918C19.7474 16.0211 27.0348 14.6853 34.0978 14.6853C45.151 14.6853 55.5846 17.9997 63.2183 24.2844C62.7225 24.7551 62.3013 25.1496 61.9794 25.4466C54.0984 32.6209 45.4989 41.4783 40.4682 52.0675C38.213 52.9342 36.1318 53.9974 34.2474 55.2586C31.745 56.9417 29.4639 59.7612 30.5304 62.6567C31.0752 64.1906 32.067 65.2797 33.4555 65.8722C34.2977 66.218 35.2392 66.3672 36.2309 66.3672H36.3301C36.1562 67.8508 36.0829 69.3862 36.1074 70.9445C36.1318 71.9833 36.2065 73.1957 36.7772 74.2848C38.4373 77.4272 42.4777 77.2779 45.5751 77.1545C48.5993 77.0311 51.6464 77.4759 54.695 78.07C51.6464 79.0341 48.5246 79.7028 45.3264 79.9008H45.3249ZM36.6506 63.8936C35.8083 63.9423 35.0637 63.8692 34.4442 63.5966C33.6752 63.2752 33.1808 62.7055 32.8573 61.8159C32.2867 60.2577 33.9971 58.4025 35.6084 57.3134C36.6994 56.596 37.8148 55.9532 39.0278 55.3835C37.9628 58.1054 37.1449 60.9508 36.649 63.8936H36.6506ZM43.7136 61.8906C42.3251 62.4846 40.7642 63.0787 39.2521 63.4732C39.5741 61.7413 40.0211 60.0597 40.5903 58.4009C40.5903 58.5487 40.6147 58.698 40.665 58.8457C41.0862 60.4786 42.3999 61.394 43.7136 61.8891V61.8906ZM59.0543 76.5117C54.9895 75.5719 50.8011 74.6565 46.4891 74.6565C46.0924 74.6565 45.7201 74.6565 45.3493 74.6808C42.7966 74.7799 39.8975 74.9032 38.9805 73.147C38.6341 72.5286 38.6082 71.6619 38.5838 70.9201V70.425C38.5838 68.9415 38.683 67.5051 38.8569 66.0702C41.7316 65.5006 44.7298 64.1647 46.8614 63.2005C47.307 63.0025 47.7281 62.8045 48.076 62.6567C51.2238 62.9781 54.8919 63.2264 58.4104 62.4587C62.3517 61.5936 66.0182 59.4398 68.7205 56.4467C69.0669 56.0507 69.8603 55.1596 69.7123 53.973C69.5887 52.8596 68.7205 52.0431 67.184 51.5237C60.2445 49.2968 52.8351 48.9252 45.7216 50.5093C45.0518 50.657 44.4079 50.8307 43.764 51.0043C48.7199 41.7022 56.5016 33.7846 63.6395 27.279C64.0118 26.9576 64.4817 26.487 65.0768 25.9188C65.5483 26.3636 65.9938 26.8099 66.4394 27.3049C70.3547 31.4617 73.3285 36.6071 76.2032 41.5803C79.029 46.4545 81.9525 51.5009 85.8434 55.8054C85.9914 55.9791 86.1653 56.1771 86.3393 56.3492C85.5214 58.6005 84.4808 60.6538 82.9931 62.41C80.7624 65.0329 77.6405 66.8136 74.6163 68.5454C69.7596 71.3161 64.555 74.2848 59.0528 76.5117H59.0543ZM55.1146 54.7392C54.8171 53.775 54.1976 53.181 53.6285 52.6616L53.3813 52.4148C53.2318 52.2914 53.0838 52.168 52.9358 52.0431C57.4965 51.8695 62.0557 52.4635 66.418 53.8984C67.0375 54.0964 67.2114 54.27 67.2603 54.27C67.2359 54.3203 67.1611 54.4681 66.888 54.7895C64.5092 57.4124 61.3111 59.2676 57.8673 60.0338C56.108 60.4055 54.3227 60.5288 52.4643 60.4786C52.6123 60.3552 52.7862 60.2318 52.9358 60.0826C54.8446 58.4497 55.6624 56.4452 55.1162 54.7392H55.1146ZM90.4789 69.435C88.2984 74.0365 82.9443 77.1545 78.6079 78.2177C73.478 79.4545 68.397 78.6381 63.1192 77.45C67.6051 75.3968 71.8424 72.9718 75.8568 70.6962C78.9054 68.9399 82.3492 66.9598 84.8775 64.017C86.3149 62.3095 87.3799 60.4298 88.2237 58.3766C89.0659 59.3408 89.809 60.3065 90.3553 61.3955C91.669 64.0916 91.7178 66.7892 90.4789 69.4365V69.435Z" fill="#6CC5B1"/>
</g>
<defs>
<clipPath id="clip0_3_32">
<rect width="100" height="82.449" fill="white"/>
</clipPath>
</defs>
</svg>
