<svg width="42" height="42" viewBox="0 0 42 42" fill="none" xmlns="http://www.w3.org/2000/svg">
<path d="M23.1415 0.166016C25.4852 0.172266 26.6748 0.184766 27.7019 0.213932L28.1061 0.228516C28.5727 0.245182 29.0332 0.266016 29.5894 0.291016C31.8061 0.395182 33.3186 0.745182 34.6457 1.25977C36.0207 1.78893 37.179 2.5056 38.3373 3.66185C39.3967 4.7033 40.2164 5.96308 40.7394 7.35351C41.254 8.6806 41.604 10.1931 41.7082 12.4118C41.7332 12.966 41.754 13.4264 41.7707 13.8952L41.7832 14.2993C41.8144 15.3243 41.8269 16.5139 41.8311 18.8577L41.8332 20.4118V23.141C41.8383 24.6606 41.8223 26.1802 41.7852 27.6993L41.7727 28.1035C41.7561 28.5723 41.7352 29.0327 41.7102 29.5868C41.6061 31.8056 41.2519 33.316 40.7394 34.6452C40.2179 36.0364 39.398 37.2965 38.3373 38.3368C37.2956 39.3958 36.0359 40.2155 34.6457 40.7389C33.3186 41.2535 31.8061 41.6035 29.5894 41.7077C29.0951 41.731 28.6006 41.7518 28.1061 41.7702L27.7019 41.7827C26.6748 41.8118 25.4852 41.8264 23.1415 41.8306L21.5873 41.8327H18.8602C17.3399 41.8379 15.8197 41.8219 14.2998 41.7848L13.8957 41.7723C13.4011 41.7535 12.9066 41.732 12.4123 41.7077C10.1957 41.6035 8.68315 41.2535 7.35399 40.7389C5.96371 40.2168 4.70444 39.3969 3.6644 38.3368C2.60408 37.2958 1.78362 36.0359 1.26024 34.6452C0.745652 33.3181 0.395652 31.8056 0.291485 29.5868C0.268274 29.0925 0.247441 28.5981 0.228985 28.1035L0.218569 27.6993C0.180177 26.1802 0.162814 24.6606 0.166485 23.141V18.8577C0.160671 17.3381 0.17595 15.8185 0.212319 14.2993L0.226902 13.8952C0.243569 13.4264 0.264402 12.966 0.289402 12.4118C0.393569 10.1931 0.743568 8.68268 1.25815 7.35351C1.78131 5.96165 2.6034 4.70148 3.66649 3.66185C4.70626 2.60242 5.9647 1.78266 7.35399 1.25977C8.68315 0.745182 10.1936 0.395182 12.4123 0.291016C12.9665 0.266016 13.429 0.245182 13.8957 0.228516L14.2998 0.216015C15.819 0.179 17.3386 0.163027 18.8582 0.168099L23.1415 0.166016ZM20.9998 10.5827C18.2371 10.5827 15.5876 11.6801 13.6341 13.6337C11.6806 15.5872 10.5832 18.2367 10.5832 20.9993C10.5832 23.762 11.6806 26.4115 13.6341 28.365C15.5876 30.3185 18.2371 31.416 20.9998 31.416C23.7625 31.416 26.412 30.3185 28.3655 28.365C30.319 26.4115 31.4165 23.762 31.4165 20.9993C31.4165 18.2367 30.319 15.5872 28.3655 13.6337C26.412 11.6801 23.7625 10.5827 20.9998 10.5827ZM20.9998 14.7493C21.8206 14.7492 22.6333 14.9107 23.3917 15.2247C24.15 15.5387 24.8391 15.9989 25.4195 16.5792C26 17.1595 26.4605 17.8484 26.7747 18.6066C27.0889 19.3648 27.2507 20.1775 27.2509 20.9983C27.251 21.8191 27.0895 22.6318 26.7755 23.3902C26.4615 24.1485 26.0013 24.8376 25.421 25.418C24.8407 25.9985 24.1518 26.459 23.3936 26.7732C22.6354 27.0874 21.8227 27.2492 21.0019 27.2493C19.3443 27.2493 17.7546 26.5909 16.5825 25.4188C15.4104 24.2467 14.7519 22.657 14.7519 20.9993C14.7519 19.3417 15.4104 17.752 16.5825 16.5799C17.7546 15.4078 19.3443 14.7493 21.0019 14.7493M31.9394 7.45768C31.2487 7.45768 30.5864 7.73205 30.098 8.22042C29.6096 8.7088 29.3352 9.37118 29.3352 10.0618C29.3352 10.7525 29.6096 11.4149 30.098 11.9033C30.5864 12.3916 31.2487 12.666 31.9394 12.666C32.6301 12.666 33.2925 12.3916 33.7808 11.9033C34.2692 11.4149 34.5436 10.7525 34.5436 10.0618C34.5436 9.37118 34.2692 8.7088 33.7808 8.22042C33.2925 7.73205 32.6301 7.45768 31.9394 7.45768Z" fill="#6CC5B1"/>
</svg>
