<svg width="41" height="40" viewBox="0 0 41 40" fill="none" xmlns="http://www.w3.org/2000/svg">
<g clip-path="url(#clip0_103_788)">
<path d="M0 2.865C0 1.2825 1.34788 0 3.01094 0H37.9891C39.6521 0 41 1.2825 41 2.865V37.135C41 38.7175 39.6521 40 37.9891 40H3.01094C1.34788 40 0 38.7175 0 37.135V2.865ZM12.6664 33.485V15.4225H6.51387V33.485H12.6664ZM9.59144 12.955C11.7362 12.955 13.0713 11.57 13.0713 9.835C13.0329 8.0625 11.7388 6.715 9.63244 6.715C7.52606 6.715 6.15 8.065 6.15 9.835C6.15 11.57 7.48506 12.955 9.55044 12.955H9.59144ZM22.1682 33.485V23.3975C22.1682 22.8575 22.2092 22.3175 22.3732 21.9325C22.8165 20.855 23.8287 19.7375 25.5302 19.7375C27.757 19.7375 28.6462 21.3925 28.6462 23.8225V33.485H34.7987V23.125C34.7987 17.575 31.7648 14.995 27.716 14.995C24.4514 14.995 22.9882 16.745 22.1682 17.9775V18.04H22.1272L22.1682 17.9775V15.4225H16.0182C16.0951 17.1175 16.0182 33.485 16.0182 33.485H22.1682Z" fill="#6CC5B1"/>
</g>
<defs>
<clipPath id="clip0_103_788">
<rect width="41" height="40" fill="white"/>
</clipPath>
</defs>
</svg>
